# xmcd CD database file
#
# Track frame offsets:
#	150
#	9965
#	22860
#	35925
#	50697
#	60635
#	73580
#	82540
#	95142
#	110427
#	125575
#	139402
#
# Disc length: 2047 seconds
#
# Revision: 0
# Processed by: cddbd v1.5.2PL0 Copyright (c) Steve Scherf et al.
# Submitted via: CDex 1.70beta2
#
DISCID=a007fd0c
DTITLE=Various Artist - Country Pride
DYEAR=1900
DGENRE=Country
TTITLE0=Lynn Anderson - What A Man My Man Is
TTITLE1=Jeannie C. Riley - Good Enough To Be Your Wife
TTITLE2=Johnny Paycheck - She's All I Got
TTITLE3=Don Gibson - Woman
TTITLE4=Conway Twitty - It's Only Make Believe
TTITLE5=Bobby G. Rice - You Lay So Easy On My Mind
TTITLE6=Margo Smith - There I Said It
TTITLE7=Margo Smith - Wasted Days And Wasted Nights
TTITLE8=Cal Smith - It's Time To Pay The Fiddler
TTITLE9=Kenny Rogers - Conditions
TTITLE10=Barbara Mandrell - Try To Remember
TTITLE11=Frankie Laine - Don't Fence Me In
EXTD=
EXTT0=
EXTT1=
EXTT2=
EXTT3=
EXTT4=
EXTT5=
EXTT6=
EXTT7=
EXTT8=
EXTT9=
EXTT10=
EXTT11=
PLAYORDER=
